<svg width="1" height="1" viewBox="0 0 1 1" fill="none" xmlns="http://www.w3.org/2000/svg">
<path d="M0.845 0.125H0.155C0.138431 0.125 0.125 0.138431 0.125 0.155V0.845C0.125 0.861569 0.138431 0.875 0.155 0.875H0.845C0.861569 0.875 0.875 0.861569 0.875 0.845V0.155C0.875 0.138431 0.861569 0.125 0.845 0.125Z" fill="#009BFF"/>
<path d="M0.245528 0.331249L0.306531 0.517688H0.311373L0.382061 0.333671L0.448916 0.335554L0.450866 0.543784L0.460013 0.668749H0.394639L0.39706 0.542843L0.391747 0.415456L0.333636 0.575799L0.274113 0.578691L0.219835 0.415456L0.215464 0.542843L0.218894 0.668749H0.158833L0.165626 0.551048L0.168518 0.343356L0.245528 0.331249ZM0.613563 0.554478L0.499292 0.57479L0.495391 0.530736L0.609662 0.510424L0.613563 0.554478ZM0.83585 0.668749H0.658559L0.66441 0.551048L0.658559 0.334612H0.840155L0.834841 0.386401H0.725884L0.722992 0.472154H0.819843L0.81453 0.523472H0.721041L0.72057 0.542843L0.723933 0.617431H0.841164L0.83585 0.668749Z" fill="white"/>
</svg>
